<?xml version="1.0" encoding="utf-8"?>
<!-- Generator: Adobe Illustrator 16.0.3, SVG Export Plug-In . SVG Version: 6.00 Build 0)  -->
<!DOCTYPE svg PUBLIC "-//W3C//DTD SVG 1.1//EN" "http://www.w3.org/Graphics/SVG/1.1/DTD/svg11.dtd">
<svg version="1.1" id="Layer_1" xmlns="http://www.w3.org/2000/svg" xmlns:xlink="http://www.w3.org/1999/xlink" x="0px" y="0px"
	 width="709.953px" height="201.771px" viewBox="0 0 709.953 201.771" enable-background="new 0 0 709.953 201.771"
	 xml:space="preserve">
<path fill="#0795BB" d="M42.359,91.633c-2.123,0-4.21-0.148-6.263-0.409L2.416,202.771h79.813L48.549,91.232
	C46.52,91.487,44.458,91.633,42.359,91.633z"/>
<g>
	<g enable-background="new    ">
		<path fill="#F2F2F2" d="M212.641,160.827l-33.125-95.39h-0.625c0.885,14.168,1.328,27.448,1.328,39.843v55.547h-16.953V46.608
			h26.328l31.719,90.858h0.469l32.656-90.858h26.406v114.22h-17.969v-56.484c0-5.675,0.143-13.071,0.43-22.188
			c0.286-9.111,0.533-14.635,0.742-16.563h-0.625l-34.297,95.234L212.641,160.827L212.641,160.827z"/>
		<path fill="#F2F2F2" d="M381.78,160.827l-11.406-31.719h-43.67l-11.172,31.719h-19.688L338.578,46.14h20.313l42.733,114.687
			H381.78L381.78,160.827z M365.452,113.014l-10.703-31.094c-0.781-2.082-1.861-5.362-3.242-9.844
			c-1.381-4.479-2.33-7.76-2.852-9.844c-1.406,6.406-3.464,13.412-6.171,21.016l-10.313,29.766H365.452z"/>
		<path fill="#F2F2F2" d="M456.155,160.827h-18.67V62.624h-33.595V46.608h85.857v16.016h-33.594L456.155,160.827L456.155,160.827z"
			/>
		<path fill="#F2F2F2" d="M525.921,115.202v45.625h-18.672V46.608h32.268c14.738,0,25.648,2.764,32.732,8.281
			c7.084,5.521,10.625,13.854,10.625,25c0,14.219-7.395,24.349-22.188,30.39l32.266,50.549h-21.25l-27.344-45.625L525.921,115.202
			L525.921,115.202L525.921,115.202z M525.921,99.733h12.971c8.695,0,15-1.611,18.904-4.843c3.906-3.229,5.859-8.021,5.859-14.375
			c0-6.457-2.109-11.095-6.328-13.906s-10.572-4.219-19.063-4.219H525.92L525.921,99.733L525.921,99.733z"/>
	</g>
</g>
<polygon fill="#0795BB" points="606.735,46.116 630.36,46.116 710.954,161.307 687.36,161.307 "/>
<polygon fill="#F4AD26" points="663.996,80.25 675.767,97.084 711.454,46.116 687.892,46.116 "/>
<polygon fill="#F4AD26" points="642.407,111.079 654.204,127.922 630.829,161.307 607.251,161.307 "/>
<path fill="#F4AD26" d="M91.418,46.598c-1.742,20.423-15.932,37.286-34.957,42.971l0.008,0.062l10.109,33.392h47.917V46.598H91.418z
	"/>
<polygon fill="#F4AD26" points="69.017,131.063 87.676,131.063 104.392,186.625 85.767,186.625 "/>
<circle fill="#0795BB" cx="42.338" cy="42.337" r="41.337"/>
</svg>
