<?xml version="1.0" encoding="utf-8"?>
<!-- Generator: Adobe Illustrator 16.0.3, SVG Export Plug-In . SVG Version: 6.00 Build 0)  -->
<!DOCTYPE svg PUBLIC "-//W3C//DTD SVG 1.1//EN" "http://www.w3.org/Graphics/SVG/1.1/DTD/svg11.dtd">
<svg version="1.1" id="Layer_1" xmlns="http://www.w3.org/2000/svg" xmlns:xlink="http://www.w3.org/1999/xlink" x="0px" y="0px"
	 width="24.375px" height="24.333px" viewBox="199.542 536.126 24.375 24.333"
	 enable-background="new 199.542 536.126 24.375 24.333" xml:space="preserve">
<path fill="#FFFFFF" stroke="#000000" stroke-width="0.75" stroke-miterlimit="10" d="M222.857,543.095l-2.114,2.114
	c-0.215,0.216-0.564,0.216-0.779,0l-5.09-5.09c-0.215-0.216-0.215-0.564,0-0.78l2.114-2.113c0.857-0.858,2.251-0.858,3.114,0
	l2.756,2.756C223.719,540.839,223.719,542.232,222.857,543.095z M213.057,541.155l-12.042,12.042l-0.972,5.571
	c-0.133,0.752,0.523,1.403,1.275,1.275l5.572-0.978l12.042-12.042c0.215-0.215,0.215-0.563,0-0.779l-5.09-5.09
	C213.622,540.939,213.273,540.939,213.057,541.155z M205.716,552.165c-0.252-0.252-0.252-0.655,0-0.907l7.062-7.063
	c0.252-0.252,0.656-0.252,0.908,0s0.252,0.656,0,0.908l-7.062,7.062C206.372,552.418,205.968,552.418,205.716,552.165
	L205.716,552.165z M204.06,556.021h2.201v1.665l-2.958,0.519l-1.426-1.427l0.518-2.958h1.665V556.021z"/>
</svg>
