<?xml version="1.0" encoding="utf-8"?>
<!-- Generator: Adobe Illustrator 16.0.3, SVG Export Plug-In . SVG Version: 6.00 Build 0)  -->
<!DOCTYPE svg PUBLIC "-//W3C//DTD SVG 1.1//EN" "http://www.w3.org/Graphics/SVG/1.1/DTD/svg11.dtd">
<svg version="1.1" id="Layer_1" xmlns="http://www.w3.org/2000/svg" xmlns:xlink="http://www.w3.org/1999/xlink" x="0px" y="0px"
	 width="23.625px" height="20.75px" viewBox="199.594 504.625 23.625 20.75" enable-background="new 199.594 504.625 23.625 20.75"
	 xml:space="preserve">
<path fill="#FFFFFF" stroke="#000000" stroke-width="0.75" stroke-miterlimit="10" d="M222.229,515.801
	c0.837-0.837,0.837-2.193,0-3.03l-7.143-7.144c-0.837-0.836-2.193-0.837-3.03,0l-11.429,11.429c-0.837,0.837-0.837,2.194,0,3.031
	l4.286,4.285c0.402,0.402,0.947,0.628,1.515,0.628h15.893c0.296,0,0.536-0.24,0.536-0.536v-1.785c0-0.296-0.24-0.536-0.536-0.536
	h-6.434L222.229,515.801L222.229,515.801z M208.719,513.005l6.133,6.133l-3.005,3.005h-5.123l-3.571-3.571L208.719,513.005z"/>
</svg>
